<svg version="1.2" xmlns="http://www.w3.org/2000/svg" viewBox="0 0 512 512" width="512" height="512"><style>.a{fill:#333}</style><path fill-rule="evenodd" class="a" d="m446.2 111.4q0.6 0.9 1 1.8 0.4 1 0.6 2 0.2 1.1 0.2 2.1v352c0 23.6-19.1 42.7-42.7 42.7h-298.6c-23.6 0-42.7-19.1-42.7-42.7v-426.6c0-23.6 19.1-42.7 42.7-42.7h224q1 0 2.1 0.2 1 0.2 2 0.6 0.9 0.4 1.8 1 0.9 0.6 1.6 1.3l106.7 106.7q0.7 0.7 1.3 1.6zm-311.6-3.9c-1.3 0.5-2.5 1.3-3.5 2.3-1 1-1.8 2.2-2.3 3.5-0.5 1.2-0.8 2.6-0.8 4 0 1.4 0.3 2.8 0.8 4.1 0.5 1.3 1.3 2.5 2.3 3.5 1 1 2.2 1.8 3.5 2.3 1.3 0.5 2.7 0.8 4.1 0.8h128c1.4 0 2.8-0.3 4.1-0.8 1.2-0.5 2.4-1.3 3.4-2.3 1-1 1.8-2.2 2.3-3.5 0.6-1.3 0.8-2.7 0.8-4.1 0-1.4-0.2-2.8-0.8-4-0.5-1.3-1.3-2.5-2.3-3.5-1-1-2.2-1.8-3.4-2.3-1.3-0.6-2.7-0.8-4.1-0.8h-128c-1.4 0-2.8 0.2-4.1 0.8zm161 279.7c-4.1-4.2-10.9-4.3-15.1-0.1-15.7 15.4-35.4 32.8-43.3 38.1-1.8-4.2-3.9-11.2-5.2-15.5-4.3-14.4-7.7-25.7-18.7-25.7-9.3 0-13.5 8.6-19.9 21.5-3.1 6.3-9.6 19.5-12 21.2-2.3-0.3-6.2-3-10.6-7 11.8-15.2 21.2-32.8 21.2-46.4 0-23.3-19.6-32-32-32-12.6 0-32 18.4-32 42.7 0 10.8 6 24.1 14.5 35.8-3.4 3.4-6.9 6.5-10.2 9-4.7 3.5-5.7 10.2-2.2 14.9 0.9 1.2 1.9 2.1 3.1 2.8 1.2 0.7 2.6 1.2 4 1.4 1.3 0.2 2.8 0.1 4.1-0.2 1.4-0.4 2.6-1 3.8-1.8 3.6-2.8 7.6-6.3 11.6-10.2 8.3 7.4 17.2 12.3 24.6 12.3 14.5 0 23-16.4 30.5-31.5 4.9 16.3 9.6 31.5 22.9 31.5 3.5 0 14.3 0 60.8-45.7 4.2-4.2 4.2-10.9 0.1-15.1zm81.8-68c1.3-0.5 2.5-1.3 3.5-2.3 1-1 1.8-2.2 2.3-3.5 0.5-1.3 0.8-2.7 0.8-4.1 0-1.4-0.3-2.8-0.8-4.1-0.5-1.2-1.3-2.4-2.3-3.4-1-1-2.2-1.8-3.5-2.3-1.3-0.6-2.7-0.8-4.1-0.8h-149.3c-1.4 0-2.8 0.2-4.1 0.8-1.3 0.5-2.5 1.3-3.4 2.3-1 1-1.8 2.2-2.4 3.4-0.5 1.3-0.8 2.7-0.8 4.1 0 1.4 0.3 2.8 0.8 4.1 0.6 1.3 1.4 2.5 2.4 3.5 0.9 1 2.1 1.8 3.4 2.3 1.3 0.5 2.7 0.8 4.1 0.8h149.3c1.4 0 2.8-0.3 4.1-0.8zm0-64c1.3-0.5 2.5-1.3 3.5-2.3 1-1 1.8-2.2 2.3-3.5 0.5-1.3 0.8-2.7 0.8-4.1 0-1.4-0.3-2.8-0.8-4.1-0.5-1.2-1.3-2.4-2.3-3.4-1-1-2.2-1.8-3.5-2.3-1.3-0.6-2.7-0.8-4.1-0.8h-234.6c-1.4 0-2.8 0.2-4.1 0.8-1.3 0.5-2.5 1.3-3.5 2.3-1 1-1.8 2.2-2.3 3.4-0.5 1.3-0.8 2.7-0.8 4.1 0 1.4 0.3 2.8 0.8 4.1 0.5 1.3 1.3 2.5 2.3 3.5 1 1 2.2 1.8 3.5 2.3 1.3 0.5 2.7 0.8 4.1 0.8h234.6c1.4 0 2.8-0.3 4.1-0.8zm0-64c1.3-0.5 2.5-1.3 3.5-2.3 1-1 1.8-2.2 2.3-3.5 0.5-1.3 0.8-2.7 0.8-4.1 0-1.4-0.3-2.8-0.8-4.1-0.5-1.2-1.3-2.4-2.3-3.4-1-1-2.2-1.8-3.5-2.3-1.3-0.6-2.7-0.8-4.1-0.8h-234.6c-1.4 0-2.8 0.2-4.1 0.8-1.3 0.5-2.5 1.3-3.5 2.3-1 1-1.8 2.2-2.3 3.4-0.5 1.3-0.8 2.7-0.8 4.1 0 1.4 0.3 2.8 0.8 4.1 0.5 1.3 1.3 2.5 2.3 3.5 1 1 2.2 1.8 3.5 2.3 1.3 0.5 2.7 0.8 4.1 0.8h234.6c1.4 0 2.8-0.3 4.1-0.8zm34.2-84.5l-70.3-70.3v48.9c0 11.8 9.6 21.4 21.4 21.4z"/><path class="a" d="m160 362.7c-1.1 0.7-10.7 8.3-10.7 21.3 0 5.5 3.1 12.3 7.4 18.9 8.2-11.3 14-22.8 14-29.6 0-10.1-8.9-10.6-10.7-10.6z"/></svg>