<svg width="24" height="24" viewBox="0 0 24 24" fill="none" xmlns="http://www.w3.org/2000/svg">
<g clip-path="url(#clip0_206_155)">
<path d="M23.4886 17.9054L23.0628 17.3326C22.8717 17.0756 22.8027 16.7471 22.8779 16.4358C23.0515 15.7183 23.2659 14.3044 22.6202 13.034C22.4786 12.7555 22.3742 12.4585 22.3226 12.1503C21.9631 10.0038 23.0461 7.11127 23.0668 7.04559C23.4462 5.8463 23.5969 5.36775 22.6801 4.92675C21.6823 4.44675 20.7958 5.00119 20.2782 5.94192C20.2079 6.06961 19.1662 8.00217 18.9275 10.5135C17.385 8.43877 13.7166 3.50489 12.4973 1.86502C12.042 1.25269 11.1905 1.06406 10.5397 1.46241C9.79329 1.9193 9.61428 2.90517 10.1246 3.59152C10.1209 3.58655 9.35271 2.55342 9.3747 2.583C8.8969 1.94034 7.98842 1.7707 7.33367 2.23177C6.65651 2.70867 6.50914 3.64664 7.00029 4.3072C7.87573 5.48466 7.6745 5.21395 7.76989 5.34225C7.26504 4.66327 6.28507 4.54589 5.63239 5.10825C5.04631 5.61323 4.97159 6.49641 5.43321 7.11727L6.85474 9.0292C6.34451 8.34291 5.34884 8.23041 4.69634 8.81353C4.12742 9.32194 4.06287 10.1917 4.51812 10.804C4.75198 11.1185 11.155 19.7304 11.5108 20.209C12.2432 21.194 13.2438 21.8617 14.3363 22.1862C15.3642 22.4916 15.7836 23.303 15.9037 23.43L15.9531 23.4965C16.3644 24.0496 17.1463 24.1647 17.6995 23.7534L23.2337 19.6387C23.7827 19.2304 23.8968 18.4544 23.4886 17.9054Z" fill="#F4D44E"/>
<path d="M18.4803 3.98977C17.8759 2.71645 17.0217 1.56755 15.9759 0.621423C15.8298 0.489235 15.8185 0.263579 15.9507 0.11747C16.0829 -0.0286864 16.3085 -0.0399833 16.4547 0.0922511C17.5692 1.10039 18.48 2.32519 19.125 3.68372C19.2095 3.86175 19.1337 4.07456 18.9557 4.15913C18.7785 4.24322 18.5652 4.16855 18.4803 3.98977Z" fill="#EAE9E8"/>
<path d="M16.4801 4.54758C16.0587 3.74607 15.5129 3.01158 14.8657 2.37629C14.7251 2.23819 14.7229 2.01235 14.861 1.87168C14.9991 1.73101 15.2249 1.72899 15.3656 1.86699C16.0645 2.5531 16.6554 3.34726 17.1117 4.21557C17.2034 4.38994 17.1364 4.60571 16.9619 4.6974C16.7871 4.78927 16.5716 4.72168 16.4801 4.54758Z" fill="#EAE9E8"/>
<path d="M2.97161 15.6939C1.85697 14.6856 0.946373 13.4612 0.30128 12.1025C0.216717 11.9244 0.292561 11.7116 0.470545 11.6271C0.64853 11.5425 0.861389 11.6184 0.945905 11.7964C1.5505 13.0698 2.40433 14.2184 3.4503 15.1647C3.59645 15.2969 3.60775 15.5225 3.47551 15.6686C3.3438 15.8144 3.11814 15.8265 2.97161 15.6939Z" fill="#EAE9E8"/>
<path d="M4.06069 13.9192C3.3615 13.2329 2.77092 12.4388 2.31445 11.5706C2.22277 11.3962 2.28984 11.1805 2.46427 11.0888C2.63869 10.9971 2.85441 11.0641 2.94614 11.2385C3.36764 12.0404 3.91341 12.7747 4.56056 13.4099C4.70119 13.5479 4.7033 13.7738 4.56525 13.9145C4.42744 14.055 4.20141 14.0573 4.06069 13.9192Z" fill="#EAE9E8"/>
<path d="M7.06367 4.39257C7.60395 5.11918 11.8842 10.876 11.7394 10.6813C11.9754 10.9986 12.4309 11.0492 12.7307 10.7915C13.0033 10.5572 13.0483 10.152 12.8338 9.86344L9.02079 4.73513C9.01915 4.73297 9.01765 4.73091 9.01629 4.72904L9.01109 4.722C9.00902 4.71924 9.0072 4.71675 9.0056 4.7146L9.00167 4.70935L9.00157 4.70925L8.26343 3.71654C7.86987 3.18718 7.88665 2.47979 8.25724 1.97419C7.08738 1.89821 6.19456 3.22318 7.06367 4.39257Z" fill="#E8C842"/>
<path d="M9.62599 12.7564C9.87912 13.0968 10.3729 13.1392 10.6804 12.847C10.9196 12.6196 10.9514 12.2494 10.7545 11.9845C10.2555 11.3134 7.07679 7.03815 6.6964 6.52656C6.30012 5.99364 6.29946 5.26759 6.67784 4.75318C5.43077 4.67987 4.67768 6.10117 5.43316 7.11728C7.32898 9.66686 7.65326 10.1032 9.62599 12.7564Z" fill="#E8C842"/>
<path d="M17.2163 22.9057L17.1669 22.8393C17.0468 22.7122 16.6274 21.9009 15.5994 21.5955C14.5069 21.2709 13.5063 20.6032 12.774 19.6183C12.4181 19.1397 6.01506 10.5278 5.78125 10.2133C5.38567 9.68123 5.38281 8.95491 5.76207 8.43998C4.51871 8.36742 3.75882 9.78291 4.51801 10.804C4.75187 11.1185 11.1549 19.7304 11.5107 20.209C12.2431 21.194 13.2437 21.8617 14.3362 22.1862C15.3641 22.4916 15.7835 23.303 15.9036 23.43L15.9531 23.4965C16.3644 24.0496 17.1462 24.1647 17.6994 23.7534L18.1641 23.4079C17.8019 23.392 17.4495 23.2194 17.2163 22.9057Z" fill="#E8C842"/>
<path d="M11.3878 3.00085C10.9936 2.47069 11.0111 1.76194 11.3833 1.25621C11.1259 1.23919 10.8636 1.29001 10.6238 1.41549L10.6237 1.4153C10.4993 1.48041 10.3865 1.56207 10.2901 1.65385C10.2899 1.65399 10.2897 1.65413 10.2895 1.65432H10.2896C9.77898 2.13985 9.68387 2.92979 10.0778 3.52496L10.1245 3.59162L14.3473 9.27108C14.5939 9.60272 15.0752 9.64365 15.3742 9.35832C15.6501 9.09507 15.6844 8.66668 15.454 8.36288L11.3878 3.00085ZM10.9827 2.45607L10.9605 2.42616C10.9679 2.43605 10.9753 2.44608 10.9827 2.45607Z" fill="#E8C842"/>
<path d="M20.2782 5.94193C20.2343 6.02162 19.8123 6.805 19.4431 7.99276L19.4427 7.99243C19.2204 8.7077 19.0172 9.56968 18.9275 10.5135C19.3189 11.0336 20.1465 10.7806 20.18 10.1305L20.1907 9.92275C20.4294 7.41142 21.4711 5.4789 21.5414 5.35121C21.6653 5.12598 21.8106 4.9232 21.9733 4.75117C21.2717 4.74081 20.6695 5.23084 20.2782 5.94193Z" fill="#E8C842"/>
</g>
<defs>
<clipPath id="clip0_206_155">
<rect width="24" height="24" fill="white"/>
</clipPath>
</defs>
</svg>
