<svg xmlns="http://www.w3.org/2000/svg" version="1.1" xmlns:xlink="http://www.w3.org/1999/xlink" xmlns:svgjs="http://svgjs.com/svgjs" width="512" height="512" x="0" y="0" viewBox="0 0 498.044 498.044" style="enable-background:new 0 0 512 512" xml:space="preserve"><g><path d="m455.379 293.335-61.145-61.131a8.993 8.993 0 0 0-6.322-2.614c-2.365 0-4.636.94-6.314 2.614l-10.659 10.664c-3.478 3.491-3.478 9.139 0 12.628l44.157 44.152-44.157 44.183c-3.478 3.491-3.489 9.138 0 12.628l10.659 10.667a8.944 8.944 0 0 0 6.314 2.614c2.365 0 4.628-.94 6.322-2.614l61.145-61.164a8.9 8.9 0 0 0 2.622-6.314 8.9 8.9 0 0 0-2.622-6.313zM301.845 176.018l-38.031 14.463-28.348-37.724v-5.745c0-22.891-18.564-41.455-41.457-41.455h-17.716c-13.731 0-25.829 6.764-33.376 17.067L90.791 149.04a20.677 20.677 0 0 0-9.248 9.452l-30.211 62.884c-4.918 10.256-.596 22.555 9.655 27.487a20.524 20.524 0 0 0 8.892 2.034c7.674 0 15.039-4.304 18.581-11.68l27.188-56.595 19.197-9.724v123.783l4.949 61.502-85.487 46.211c-13.206 7.141-18.132 23.63-10.983 36.838 4.9 9.098 14.269 14.261 23.916 14.261 4.382 0 8.805-1.055 12.907-3.273l101.583-54.915c9.735-5.26 15.32-15.901 14.1-26.898l-4.604-41.659 29.471 53.064v89.053c0 15.007 12.184 27.178 27.191 27.178 15.009 0 27.181-12.17 27.181-27.178v-96.098c0-4.618-1.188-9.163-3.426-13.199l-36.177-64.889v-75.378l4.729 6.298a20.566 20.566 0 0 0 16.456 8.229c2.467 0 4.941-.434 7.324-1.342l52.502-19.973c10.636-4.047 15.978-15.943 11.92-26.567-4.03-10.624-15.909-16.005-26.552-11.928zM185.16 96.29c26.578 0 48.137-21.548 48.137-48.143C233.297 21.548 211.738 0 185.16 0c-26.605 0-48.164 21.548-48.164 48.148 0 26.595 21.558 48.142 48.164 48.142z" fill="#000000" data-original="#000000"></path></g></svg>